<svg id="Layer_1" data-name="Layer 1" xmlns="http://www.w3.org/2000/svg" viewBox="0 0 256 256"><title>logo(แก้)</title><polygon points="127.02 0.22 127.02 0.22 127.02 0.22 7.96 42.68 26.12 200.11 127.02 256 127.02 256 127.02 256 227.93 200.11 246.09 42.68 127.02 0.22" fill="#dd0031"/><polygon points="127.02 0.22 127.02 28.61 127.02 28.48 127.02 158.03 127.02 158.03 127.02 256 127.02 256 227.93 200.11 246.09 42.68 127.02 0.22" fill="#c3002f"/><path d="M127,28.48,52.59,195.38H80.34l15-37.34h63.17l15,37.34H201.2L127,28.48ZM148.76,135H105.28L127,82.71Z" fill="#fff"/></svg>