<svg id="Layer_1" data-name="Layer 1" xmlns="http://www.w3.org/2000/svg" viewBox="0 0 256 256"><title>logo(แก้)</title><path d="M256,113.77s-11.31-10.68-34.55-6.91c-2.51-18.22-22-28.9-22-28.9s-18.22,22-5,46.49a42.19,42.19,0,0,1-19.48,4.4H2.21c-3.14,11.93-3.14,91.09,83.55,91.09,62.19,0,108.68-28.9,130.66-81.67,32.67,2.51,39.58-24.5,39.58-24.5" fill="#2496ee"/><rect x="21.21" y="100.62" width="26.38" height="23.24" fill="#2496ee"/><rect x="51.99" y="71.72" width="26.38" height="23.24" fill="#2496ee"/><rect x="82.77" y="71.72" width="26.38" height="23.24" fill="#2496ee"/><rect x="114.18" y="71.72" width="26.38" height="23.24" fill="#2496ee"/><rect x="114.18" y="42.83" width="26.38" height="23.24" fill="#2496ee"/><rect x="51.99" y="100.62" width="26.38" height="23.24" fill="#2496ee"/><rect x="82.77" y="100.62" width="26.38" height="23.24" fill="#2496ee"/><rect x="113.55" y="100.62" width="26.38" height="23.24" fill="#2496ee"/><rect x="145.59" y="101.25" width="26.38" height="23.24" fill="#2496ee"/></svg>