<svg id="Layer_1" data-name="Layer 1" xmlns="http://www.w3.org/2000/svg" xmlns:xlink="http://www.w3.org/1999/xlink" viewBox="0 0 256 256"><defs><clipPath id="clip-path"><path d="M124.52,1.83,23.87,59.92a12.14,12.14,0,0,0-6.08,10.52V186.71a12.16,12.16,0,0,0,6.08,10.53l100.65,58.13a12.17,12.17,0,0,0,12.16,0l100.64-58.13a12.19,12.19,0,0,0,6.07-10.53V70.44a12.15,12.15,0,0,0-6.09-10.52L136.67,1.83a12.19,12.19,0,0,0-12.18,0" fill="none"/></clipPath><linearGradient id="linear-gradient" x1="9.56" y1="-948.17" x2="12.43" y2="-948.17" gradientTransform="matrix(-50.75, 103.54, 103.54, 50.75, 98858.57, 47112.93)" gradientUnits="userSpaceOnUse"><stop offset="0.3" stop-color="#3e863d"/><stop offset="0.5" stop-color="#55934f"/><stop offset="0.8" stop-color="#5aad45"/></linearGradient><clipPath id="clip-path-2"><path d="M20.28,194.09a12.34,12.34,0,0,0,3.58,3.15l86.34,49.87,14.38,8.26a12.21,12.21,0,0,0,7,1.59,11.44,11.44,0,0,0,2.39-.44L240.13,62.16a11.75,11.75,0,0,0-2.83-2.25L171.4,21.85l-34.83-20A13.07,13.07,0,0,0,133.41.54Z" fill="none"/></clipPath><linearGradient id="linear-gradient-2" x1="-4.24" y1="-957.07" x2="-2.38" y2="-957.07" gradientTransform="matrix(142.41, -105.22, -105.22, -142.41, -100103.68, -136512.75)" gradientUnits="userSpaceOnUse"><stop offset="0.57" stop-color="#3e863d"/><stop offset="0.72" stop-color="#619857"/><stop offset="1" stop-color="#76ac64"/></linearGradient><clipPath id="clip-path-3"><path d="M129.38.27a12.22,12.22,0,0,0-4.86,1.56L24.16,59.75,132.38,256.87a12.1,12.1,0,0,0,4.32-1.5l100.65-58.13a12.2,12.2,0,0,0,5.88-8.31L132.9.47a12.59,12.59,0,0,0-2.46-.25c-.33,0-.67,0-1,.05" fill="none"/></clipPath><linearGradient id="linear-gradient-3" y1="-961.1" x2="1.69" y2="-961.1" gradientTransform="matrix(129.89, 0, 0, -129.89, 23.85, -124708.25)" gradientUnits="userSpaceOnUse"><stop offset="0.16" stop-color="#6bbf47"/><stop offset="0.38" stop-color="#79b461"/><stop offset="0.47" stop-color="#75ac64"/><stop offset="0.7" stop-color="#659e5a"/><stop offset="0.9" stop-color="#3e863d"/></linearGradient></defs><title>logo(แก้)</title><g clip-path="url(#clip-path)"><path d="M345.1,50.05,61.49-89-83.93,207.69l283.6,139Z" fill="url(#linear-gradient)"/></g><g clip-path="url(#clip-path-2)"><path d="M-102.34,91.17l200.26,271L362.76,166.54l-200.27-271Z" fill="url(#linear-gradient-2)"/></g><g clip-path="url(#clip-path-3)"><path d="M24.16.22V256.87h219V.22Z" fill="url(#linear-gradient-3)"/></g><path d="M133.54,218.31a14.12,14.12,0,0,1-7-1.88l-22.41-13.27c-3.35-1.87-1.72-2.53-.61-2.92a44.88,44.88,0,0,0,10.13-4.62,1.72,1.72,0,0,1,1.67.12L132.5,206a2.31,2.31,0,0,0,2.08,0l67.14-38.76a2.1,2.1,0,0,0,1-1.81V87.92a2.13,2.13,0,0,0-1-1.85L134.59,47.35a2.05,2.05,0,0,0-2.06,0L65.43,86.07a2.13,2.13,0,0,0-1.06,1.83v77.47a2.06,2.06,0,0,0,1,1.8l18.38,10.62c10,5,16.09-.89,16.09-6.8V94.52a1.91,1.91,0,0,1,1.94-1.93h8.51a1.92,1.92,0,0,1,1.93,1.93V171c0,13.31-7.26,21-19.88,21-3.88,0-6.94,0-15.48-4.21L59.29,177.62a14.19,14.19,0,0,1-7-12.25V87.9a14.13,14.13,0,0,1,7-12.24l67.2-38.77a14.75,14.75,0,0,1,14.12,0l67.12,38.79a14.16,14.16,0,0,1,7,12.24v77.47a14.19,14.19,0,0,1-7,12.23l-67.12,38.77a14.05,14.05,0,0,1-7.07,1.89" fill="#f7fcf7"/><path d="M154.28,164.93c-29.37,0-35.53-13.49-35.53-24.8a1.93,1.93,0,0,1,1.94-1.93h8.67a2,2,0,0,1,1.92,1.64c1.31,8.84,5.21,13.3,23,13.3,14.15,0,20.17-3.2,20.17-10.7,0-4.32-1.72-7.53-23.7-9.68-18.38-1.82-29.74-5.87-29.74-20.57,0-13.55,11.42-21.62,30.57-21.62,21.49,0,32.14,7.47,33.49,23.5a2,2,0,0,1-.52,1.49,2,2,0,0,1-1.43.63h-8.72a1.94,1.94,0,0,1-1.89-1.52c-2.1-9.29-7.17-12.26-21-12.26-15.44,0-17.24,5.37-17.24,9.41,0,4.89,2.12,6.32,23,9.07,20.63,2.74,30.43,6.61,30.43,21.11s-12.2,23-33.48,23" fill="#f7fcf7"/></svg>