<svg id="Layer_1" data-name="Layer 1" xmlns="http://www.w3.org/2000/svg" xmlns:xlink="http://www.w3.org/1999/xlink" viewBox="0 0 256 256"><defs><clipPath id="clip-path"><path d="M-201.48,1.83-302.13,59.92a12.14,12.14,0,0,0-6.08,10.52V186.71a12.16,12.16,0,0,0,6.08,10.53l100.65,58.13a12.17,12.17,0,0,0,12.16,0l100.64-58.13a12.19,12.19,0,0,0,6.07-10.53V70.44A12.15,12.15,0,0,0-88.7,59.92L-189.33,1.83A12.14,12.14,0,0,0-195.42.2a12.17,12.17,0,0,0-6.09,1.63" fill="none"/></clipPath><linearGradient id="linear-gradient" x1="-316.44" y1="-948.17" x2="-313.57" y2="-948.17" gradientTransform="matrix(-50.75, 103.54, 103.54, 50.75, 81987.05, 80865.66)" gradientUnits="userSpaceOnUse"><stop offset="0.3" stop-color="#3e863d"/><stop offset="0.5" stop-color="#55934f"/><stop offset="0.8" stop-color="#5aad45"/></linearGradient><clipPath id="clip-path-2"><path d="M-305.72,194.09a12.34,12.34,0,0,0,3.58,3.15l86.34,49.87,14.38,8.26a12.21,12.21,0,0,0,7,1.59,11.44,11.44,0,0,0,2.39-.44L-85.87,62.16a11.75,11.75,0,0,0-2.83-2.25l-65.9-38.06-34.83-20A13.07,13.07,0,0,0-192.59.54Z" fill="none"/></clipPath><linearGradient id="linear-gradient-2" x1="-330.24" y1="-957.07" x2="-328.38" y2="-957.07" gradientTransform="matrix(142.41, -105.22, -105.22, -142.41, -54004.88, -170815.16)" gradientUnits="userSpaceOnUse"><stop offset="0.57" stop-color="#3e863d"/><stop offset="0.72" stop-color="#619857"/><stop offset="1" stop-color="#76ac64"/></linearGradient></defs><title>logo(แก้)</title><g clip-path="url(#clip-path)"><path d="M19.1,50.05-264.51-89-409.93,207.69l283.6,139Z" fill="url(#linear-gradient)"/></g><g clip-path="url(#clip-path-2)"><path d="M-428.34,91.17l200.26,271L36.76,166.54l-200.27-271Z" fill="url(#linear-gradient-2)"/></g><path d="M151.06,1a16.39,16.39,0,0,0-5.14.92,14.52,14.52,0,0,1,6.13,8.57c.07.46.2.79.26,1.25a6.9,6.9,0,0,1,.14,1.19c.26,5.8-1.52,6.52-2.77,10a14.09,14.09,0,0,0,.92,13,8.32,8.32,0,0,0,.79,1.45c-2.5-16.68,11.4-19.18,14-24.39.2-4.55-3.56-7.58-6.52-9.69A14.62,14.62,0,0,0,151.06,1Zm21,3.76a7.48,7.48,0,0,0-.13,1.91c-.07.53-.07,1.18-.13,1.71A15,15,0,0,1,171.3,10a16.46,16.46,0,0,1-.53,1.59c-.27.52-.46,1-.73,1.51-.19.26-.33.53-.52.79s-.27.4-.4.6c-.33.46-.66.92-1,1.31A9.48,9.48,0,0,1,167,17V17c-.4.33-.8.72-1.26,1.05-1.38,1.05-3,1.85-4.41,2.83a10.1,10.1,0,0,0-1.32,1A9.09,9.09,0,0,0,158.71,23a14.4,14.4,0,0,0-2.18,2.57,15.75,15.75,0,0,0-.92,1.38c-.26.53-.46,1-.73,1.52a15,15,0,0,0-.52,1.51c-.2.6-.33,1.12-.46,1.65-.07.27-.07.59-.14.86s-.06.53-.13.79c0,.53-.06,1.12-.06,1.65a7.78,7.78,0,0,0,.06,1.18,7.57,7.57,0,0,0,.2,1.65,14.3,14.3,0,0,0,.33,1.58c.2.53.33,1.06.53,1.58.13.33.33.66.46.93L140,35.93c-2.57-.72-5.08-1.38-7.65-2l-4.15-1a117.86,117.86,0,0,0-12-1.78c-.13,0-.2-.07-.33-.07a116.69,116.69,0,0,0-11.8-.59c-2.9,0-5.8.13-8.63.33-4,.26-8,.79-12.07,1.45-1,.13-2,.33-3,.52-2,.4-4,.86-5.93,1.32l-3,.79c-1,.4-1.91.86-2.83,1.25l-2.18,1c-.13.07-.26.07-.33.14-.66.32-1.25.59-1.84.92a2.25,2.25,0,0,0-.46.2c-.73.33-1.45.72-2,1.05s-.92.46-1.32.66a6.55,6.55,0,0,1-.59.33c-.59.33-1.18.66-1.71,1a15.57,15.57,0,0,0-1.58,1c-.47.33-.93.59-1.32.92-.07.06-.13.06-.2.13a12.9,12.9,0,0,0-1.25.92l-.13.13-1,.8c-.13.06-.27.19-.4.26-.33.26-.66.59-1,.86-.06.13-.19.19-.26.26-.4.4-.79.72-1.19,1.12-.06,0-.06.07-.13.13-.39.33-.79.73-1.18,1.12-.07.07-.07.13-.14.13a12.67,12.67,0,0,0-1,1.06c-.14.13-.33.26-.47.39a15.4,15.4,0,0,1-1.12,1.19c-.06.13-.19.2-.26.33-.53.53-1,1-1.52,1.58l-.19.2a39.55,39.55,0,0,1-3.37,3.23,37,37,0,0,1-3.69,2.9c-1.31.92-2.57,1.71-4,2.5a38.68,38.68,0,0,1-4.15,2c-1.39.59-2.84,1.12-4.29,1.58-2.76.6-5.6,1.72-8,1.91a15.79,15.79,0,0,0-1.65.2c-.59.13-1.12.27-1.64.4l-1.58.59A16,16,0,0,0,10,70c-.46.32-1,.59-1.45.92a10.05,10.05,0,0,0-1.31,1.12,10.67,10.67,0,0,0-1.32,1.18c-.4.47-.79.86-1.12,1.32s-.73,1-1,1.52a11.47,11.47,0,0,0-.92,1.51,18.07,18.07,0,0,0-.73,1.72c-.2.53-.39,1.12-.59,1.71a13.07,13.07,0,0,0-.33,1.58c0,.07-.07.14-.07.2C1,83.38,1,84.18.92,84.57a9.83,9.83,0,0,0-.13,1.32,3.61,3.61,0,0,0,.07.86A6.74,6.74,0,0,0,1.12,88a9.57,9.57,0,0,0,.46,1.18v.07a10.9,10.9,0,0,0,.73,1.19,12.57,12.57,0,0,0,.86,1.18,14.41,14.41,0,0,0,1.12,1.06,9.78,9.78,0,0,0,1.25,1,15.12,15.12,0,0,0,4,2.9c.33.2.66.33,1,.53.07,0,.13.07.2.07a.54.54,0,0,0,.07.32,11.24,11.24,0,0,0,.33,1.59,9.44,9.44,0,0,0,.52,1.58c.2.39.33.79.53,1.18a1.18,1.18,0,0,0,.2.33c.26.53.53,1,.79,1.45l1,1.39c.33.39.72.86,1.12,1.25s.79.73,1.25,1.12a.24.24,0,0,0,.13.07,13.62,13.62,0,0,0,1.19.92,10.86,10.86,0,0,0,1.45.86,11.68,11.68,0,0,0,1.51.72,7.6,7.6,0,0,0,1.32.46c.07.07.13.07.27.13l.85.2c-.19,3.56-.26,6.92.27,8.11s3.49-2.7,6.39-7.32c-.4,4.55-.66,9.89,0,11.47s4.68-3.49,8.11-9.16C84.83,103.09,127.47,135.39,132,181c-.86-7.11-9.62-11.07-13.64-10.08-2,4.88-5.34,11.14-10.75,15a42.07,42.07,0,0,0-.66-13.18,42.54,42.54,0,0,1-8.17,16.6,18.41,18.41,0,0,1-15.82-7.11c-.26-.2-.33-.6-.52-.86a11.16,11.16,0,0,1-.53-1.38,5.73,5.73,0,0,1-.4-1.39,11.17,11.17,0,0,1-.06-1.45v-1a9.87,9.87,0,0,1,.33-1.38,11.3,11.3,0,0,1,.46-1.39A13.88,13.88,0,0,1,83,172c1.12-3.16,1.12-5.73-.92-7.25a7.89,7.89,0,0,0-1.26-.66c-.26-.06-.59-.2-.85-.26l-.53-.2a11.51,11.51,0,0,0-1.38-.33,5.13,5.13,0,0,0-1.39-.2A11.83,11.83,0,0,0,75.2,163c-.33,0-.66.07-1,.07a4.93,4.93,0,0,0-1.45.2,9.57,9.57,0,0,0-1.38.26A10.63,10.63,0,0,0,70,164c-.47.2-.86.4-1.32.59s-.79.46-1.25.66c-15.36,10-6.2,33.48,4.28,40.27-4,.73-8,1.58-9.1,2.44l-.13.13a61.44,61.44,0,0,0,8.9,4.42c4.22,1.38,8.7,2.63,10.68,3.16v.07a63.74,63.74,0,0,0,16.61,1.18,62.69,62.69,0,0,0,57.47-53.51c.13.59.26,1.12.39,1.71.2,1.19.46,2.44.6,3.69v.07c.13.59.19,1.18.26,1.71v.26a15.37,15.37,0,0,1,.13,1.72c.07.72.13,1.45.13,2.17v1.06c0,.33.07.72.07,1.05s-.07.79-.07,1.19V179c0,.46-.06.86-.06,1.32a3.87,3.87,0,0,1-.07.86c0,.46-.06.92-.06,1.45a1.68,1.68,0,0,0-.07.59l-.2,1.52a2,2,0,0,1-.06.59c-.07.66-.2,1.25-.27,1.91v.13c-.13.6-.26,1.25-.39,1.85v.2c-.14.59-.27,1.18-.4,1.77,0,.07-.07.2-.07.27a17.27,17.27,0,0,1-.46,1.78v.2c-.19.65-.39,1.25-.52,1.84a.2.2,0,0,0-.07.13c-.2.66-.4,1.32-.59,2s-.46,1.25-.73,1.91-.46,1.32-.72,1.91-.53,1.25-.79,1.91h-.07c-.26.6-.53,1.26-.86,1.85a3.07,3.07,0,0,1-.19.46c-.07.07-.07.13-.14.2a62.33,62.33,0,0,1-18.52,22.14c-.52.33-1.05.73-1.58,1.12-.13.14-.33.2-.46.33-.46.33-.92.66-1.45,1l.2.4h.06l2.77-.4H132c1.71-.26,3.43-.59,5.14-.92a12.61,12.61,0,0,0,1.45-.33l.92-.2c.46-.06.92-.2,1.39-.26s.79-.2,1.18-.33a124.89,124.89,0,0,0,19.12-6.33,105.6,105.6,0,0,1-40.93,33.42,108.44,108.44,0,0,0,22.47-3.89A105.31,105.31,0,0,0,205,201.56a105.15,105.15,0,0,1-17.73,42.38,103.55,103.55,0,0,0,45.35-70.66,105,105,0,0,1,1.91,31.77c47.59-66.37,4-135.18-14.3-153.3a.65.65,0,0,1-.13-.33c-.07.07-.07.07-.07.13s0-.06-.06-.13c0,.79-.07,1.58-.14,2.37-.19,1.52-.39,3-.66,4.42s-.72,2.9-1.12,4.35-1,2.83-1.58,4.22-1.25,2.7-2,4a42.15,42.15,0,0,1-2.37,3.75c-.85,1.26-1.78,2.44-2.7,3.56s-2,2.24-3.1,3.3c-.66.59-1.25,1.12-1.91,1.65l-1.52,1.31a34.62,34.62,0,0,1-3.69,2.57,44.37,44.37,0,0,1-3.88,2.25c-1.39.65-2.77,1.25-4.16,1.84a43.6,43.6,0,0,1-4.28,1.38c-1.45.4-3,.73-4.42,1s-3,.4-4.48.53c-1,.07-2.11.13-3.16.13-1.52,0-3-.13-4.48-.26a44.24,44.24,0,0,1-8.9-1.78h-.07c1.45-.13,2.9-.26,4.35-.53a45,45,0,0,0,4.42-1,43.6,43.6,0,0,0,4.28-1.38,39.19,39.19,0,0,0,4.15-1.85c1.39-.66,2.64-1.38,4-2.17s2.5-1.71,3.69-2.64a35.2,35.2,0,0,0,3.36-3,36.38,36.38,0,0,0,3.1-3.23q1.48-1.78,2.77-3.56c.13-.2.26-.46.39-.66.66-1.06,1.32-2.11,1.91-3.16a43,43,0,0,0,2-4c.59-1.38,1.12-2.76,1.58-4.21s.79-2.84,1.12-4.29.53-3,.66-4.41.27-3,.27-4.48c0-1.06-.07-2.11-.14-3.17-.13-1.51-.32-3-.52-4.41s-.6-3-1-4.42-.92-2.83-1.45-4.22-1.19-2.77-1.85-4.08-1.45-2.64-2.24-3.89-1.71-2.44-2.63-3.63-2-2.24-3-3.36c-.52-.53-1.12-1.12-1.71-1.65-3-2.3-6.06-4.48-9.16-6.46a11.5,11.5,0,0,0-1.32-.65A25.46,25.46,0,0,0,172,4.76Z" fill="#e0234e" fill-rule="evenodd"/></svg>