<svg id="Layer_1" data-name="Layer 1" xmlns="http://www.w3.org/2000/svg" xmlns:xlink="http://www.w3.org/1999/xlink" viewBox="0 0 256 256"><defs><linearGradient id="linear-gradient" x1="-595.13" y1="-692.8" x2="-595.13" y2="-682.65" gradientTransform="matrix(25.21, 0, 0, -25.19, 15130.34, -17197.07)" gradientUnits="userSpaceOnUse"><stop offset="0" stop-color="#0052cc"/><stop offset="1" stop-color="#2684ff"/></linearGradient></defs><title>logo(แก้)</title><path d="M225.82.24H30.7A30.42,30.42,0,0,0,.28,30.62V225.45A30.42,30.42,0,0,0,30.7,256H225.82a30.44,30.44,0,0,0,30.39-30.55V30.62A30.43,30.43,0,0,0,225.82.24ZM110.65,184.45a10.16,10.16,0,0,1-10.25,10.13H57.76a10.13,10.13,0,0,1-10.08-10.13V57.56A10.13,10.13,0,0,1,57.76,47.43H100.4a10.16,10.16,0,0,1,10.13,10.13Zm98.41-58.26a10.12,10.12,0,0,1-10.25,10.13H156.16A10.17,10.17,0,0,1,146,126.19V57.56a10.16,10.16,0,0,1,10.12-10.13h42.65a10.13,10.13,0,0,1,10.08,10.13Z" fill-rule="evenodd" fill="url(#linear-gradient)"/></svg>