<?xml version="1.0" encoding="utf-8"?>
<!-- Generator: Adobe Illustrator 24.2.1, SVG Export Plug-In . SVG Version: 6.00 Build 0)  -->
<svg version="1.1" id="Layer_1" xmlns="http://www.w3.org/2000/svg" xmlns:xlink="http://www.w3.org/1999/xlink" x="0px" y="0px"
	 viewBox="0 0 96 96" style="enable-background:new 0 0 96 96;" xml:space="preserve">
<style type="text/css">
	.st0{fill:#FF7415;}
</style>
<path d="M31.9,51.3c-0.3-0.6-0.7-1.9-1.5-1.9c-1.3,0-0.9,5.8-0.9,7.2c0,4.7,2.8,2.5,2.8,4.8c0,2.5-4.7,2.6-6.4,2.6
	c-1.5,0-5.5-0.1-5.5-2.4c0-2.5,2.6-0.4,3-4c0.4-3.7,0.7-7.7,0.7-14c0-2.6-0.2-4-0.7-5c-0.4-0.9-2.9-1.2-2.9-3c0-2.5,4-3.1,7.5-3.1
	c5.1,0,5,0.9,6.3,3.1c1.5,2.6,4.2,9.7,6.1,10.1c1.4,0.3,3.1-5,4.7-7.8c2.2-4.1,2.3-5.4,8-5.4c1.9,0,6.3,0.1,6.3,2.9
	c0,1.7-2,2.1-2.4,3.6c-0.3,1.2-0.7,6.4-0.7,8.3c0,0.7,0.3,5.4,0.4,9.5c0.1,3.2,2.8,2.5,2.8,4.4c0,2.9-6,2.8-7.9,2.8
	C50,64,44,64.2,44,61.4c0-1.5,2-1.8,2.3-3.2c0.2-0.7,1-8.2-0.5-8.2c-1.4,0-2.7,3.8-3.8,6.1c-1,2-2.5,7-3.9,6.8c-0.7-0.1-1,0-3.7-5.9
	L31.9,51.3z"/>
<path d="M61.3,48.2c0-9.2,7.4-15.8,16.9-15.8c12,0,16.6,10.6,16.6,16.2c0,9.4-8.3,15.6-17.2,15.6C68.4,64.1,61.3,57.4,61.3,48.2z
	 M76.2,38.9c-2.4,0-3.7,2.5-3.7,4.7c0,3.7,2.6,14.1,7.3,14.1c2.7,0,3.8-2.3,3.8-4.7C83.6,49,81.2,38.9,76.2,38.9z"/>
<path class="st0" d="M2.3,48.3c0-14.5,2.4-26,7.2-34.4C14.3,5.5,22.2,1.3,33.2,1.3c6.4,0,11.9,1.8,16.6,5.3c4.7,3.5,8.8,8,12.3,13.3
	c-0.7,0.9-1.5,1.9-2.4,3c-1,1.1-1.9,2-2.8,2.9c-0.9,0.8-1.8,1.4-2.5,1.7c-0.8,0.3-1.4,0.2-1.8-0.2c-1.6-2.3-3.1-4.4-4.5-6.3
	c-1.4-1.9-2.9-3.6-4.5-4.9c-1.6-1.4-3.3-2.4-5.1-3.1c-1.8-0.7-4-1-6.5-1c-2,0-3.9,0.3-6,0.8c-2,0.5-3.9,2-5.5,4.5
	c-1.6,2.5-3,6.1-4,11C15.5,33,15,39.7,15,48.3c0,8.6,0.5,15.3,1.6,20.2c1,4.9,2.4,8.5,4,10.9c1.6,2.4,3.5,3.9,5.5,4.5
	c2,0.6,4,0.9,6,0.9c2.5,0,4.6-0.4,6.5-1c1.8-0.7,3.5-1.7,5.1-3.1c1.6-1.4,3.1-3,4.5-4.9c1.4-1.9,2.9-4,4.5-6.3
	c0.4-0.5,1-0.5,1.8-0.2c0.8,0.3,1.6,0.9,2.5,1.7c0.9,0.9,1.9,1.8,2.8,2.9c1,1.1,1.8,2.1,2.4,3c-3.5,5.4-7.6,9.8-12.3,13.3
	c-4.7,3.5-10.2,5.3-16.6,5.3c-10.9,0-18.8-4.2-23.7-12.6C4.7,74.3,2.3,62.8,2.3,48.3z"/>
</svg>
