<?xml version="1.0" encoding="utf-8"?>
<!-- Generator: Adobe Illustrator 25.0.1, SVG Export Plug-In . SVG Version: 6.00 Build 0)  -->
<svg version="1.1" id="Layer_1" xmlns="http://www.w3.org/2000/svg" xmlns:xlink="http://www.w3.org/1999/xlink" x="0px" y="0px"
	 viewBox="0 0 96 96" style="enable-background:new 0 0 96 96;" xml:space="preserve">
<style type="text/css">
	.st0{fill:#06C755;}
	.st1{fill:#FFFFFF;}
</style>
<g>
	<circle class="st0" cx="47.9" cy="48.3" r="47.7"/>
	<g>
		<g>
			<g>
				<path class="st1" d="M77.1,45.8c0-12.9-12.9-23.4-28.8-23.4c-15.9,0-28.8,10.5-28.8,23.4c0,11.5,10.2,21.2,24.1,23
					c0.9,0.2,2.2,0.6,2.5,1.4c0.3,0.7,0.2,1.9,0.1,2.6c0,0-0.3,2-0.4,2.5c-0.1,0.7-0.6,2.8,2.5,1.6c3.1-1.3,16.6-9.8,22.6-16.7h0
					C75.1,55.6,77.1,51,77.1,45.8z"/>
			</g>
			<g>
				<path class="st0" d="M67.5,53.3h-8.1h0c-0.3,0-0.5-0.2-0.5-0.5v0v0V40.2v0v0c0-0.3,0.2-0.5,0.5-0.5h0h8.1c0.3,0,0.5,0.2,0.5,0.5
					v2c0,0.3-0.2,0.5-0.5,0.5H62v2.1h5.5c0.3,0,0.5,0.2,0.5,0.5v2c0,0.3-0.2,0.5-0.5,0.5H62v2.1h5.5c0.3,0,0.5,0.2,0.5,0.5v2
					C68,53,67.8,53.3,67.5,53.3z"/>
				<path class="st0" d="M37.6,53.3c0.3,0,0.5-0.2,0.5-0.5v-2c0-0.3-0.2-0.5-0.5-0.5h-5.5v-10c0-0.3-0.2-0.5-0.5-0.5h-2
					c-0.3,0-0.5,0.2-0.5,0.5v12.6v0v0c0,0.3,0.2,0.5,0.5,0.5h0H37.6z"/>
				<path class="st0" d="M42.4,39.6h-2c-0.3,0-0.5,0.2-0.5,0.5v12.6c0,0.3,0.2,0.5,0.5,0.5h2c0.3,0,0.5-0.2,0.5-0.5V40.2
					C43,39.9,42.7,39.6,42.4,39.6z"/>
				<path class="st0" d="M56.3,39.6h-2c-0.3,0-0.5,0.2-0.5,0.5v7.5L48,39.9c0,0,0,0,0-0.1c0,0,0,0,0,0c0,0,0,0,0,0c0,0,0,0,0,0
					c0,0,0,0,0,0c0,0,0,0,0,0c0,0,0,0,0,0c0,0,0,0,0,0c0,0,0,0,0,0c0,0,0,0,0,0c0,0,0,0,0,0c0,0,0,0,0,0c0,0,0,0,0,0c0,0,0,0,0,0
					c0,0,0,0,0,0c0,0,0,0,0,0c0,0,0,0,0,0c0,0,0,0,0,0c0,0,0,0,0,0h-2c-0.3,0-0.5,0.2-0.5,0.5v12.6c0,0.3,0.2,0.5,0.5,0.5h2
					c0.3,0,0.5-0.2,0.5-0.5v-7.5l5.8,7.8c0,0.1,0.1,0.1,0.1,0.1c0,0,0,0,0,0c0,0,0,0,0,0c0,0,0,0,0,0c0,0,0,0,0,0c0,0,0,0,0,0
					c0,0,0,0,0,0c0,0,0,0,0,0c0,0,0,0,0,0c0,0,0.1,0,0.1,0h2c0.3,0,0.5-0.2,0.5-0.5V40.2C56.9,39.9,56.6,39.6,56.3,39.6z"/>
			</g>
		</g>
	</g>
</g>
</svg>
