<?xml version="1.0" standalone="no"?>
<!DOCTYPE svg PUBLIC "-//W3C//DTD SVG 20010904//EN"
 "http://www.w3.org/TR/2001/REC-SVG-20010904/DTD/svg10.dtd">
<svg version="1.0" xmlns="http://www.w3.org/2000/svg"
 width="1760.000000pt" height="1134.000000pt" viewBox="0 0 1760.000000 1134.000000"
 preserveAspectRatio="xMidYMid meet">

<g transform="translate(0.000000,1134.000000) scale(0.100000,-0.100000)"
fill="#000000" stroke="none">
<path d="M3340 10576 c0 -20 22 -50 90 -120 50 -51 90 -98 90 -104 0 -7 4 -12
10 -12 13 0 73 -106 110 -192 46 -108 90 -286 105 -423 27 -243 31 -458 14
-695 -6 -80 -12 -163 -13 -185 -7 -99 -18 -203 -26 -230 -5 -16 -11 -51 -15
-76 l-6 -47 -67 -7 c-203 -21 -400 -87 -520 -174 -46 -34 -49 -57 -6 -41 14 6
40 12 57 14 18 3 79 18 137 35 352 101 657 97 936 -11 72 -28 234 -117 234
-129 0 -5 6 -9 13 -9 14 0 85 -59 171 -142 33 -32 62 -58 66 -58 3 0 15 -8 26
-17 10 -10 36 -29 56 -43 21 -14 38 -28 38 -32 0 -5 5 -8 10 -8 6 0 41 -20 78
-44 37 -25 103 -61 147 -81 160 -72 167 -77 235 -167 142 -187 259 -295 389
-361 35 -18 84 -51 108 -74 24 -24 47 -43 52 -43 4 0 45 -38 90 -85 46 -47
111 -103 145 -125 33 -22 66 -43 71 -47 6 -5 46 -26 90 -47 43 -22 98 -55 122
-73 24 -18 46 -33 49 -33 17 0 127 -125 150 -172 23 -47 27 -69 34 -193 4 -77
8 -144 10 -150 1 -5 2 -15 1 -22 -1 -15 -132 -94 -160 -96 -12 -1 -21 -4 -21
-8 0 -6 -22 -17 -50 -24 -3 -1 -12 -4 -20 -7 -93 -36 -209 -47 -261 -25 -41
17 -66 60 -75 130 -6 41 -4 48 20 70 33 31 60 36 166 33 103 -4 152 8 206 48
43 32 69 91 57 134 -7 29 -14 28 -48 -8 -36 -38 -62 -43 -231 -44 -135 -1
-143 -2 -200 -31 -51 -26 -63 -38 -86 -84 -32 -63 -35 -105 -11 -198 57 -228
287 -270 618 -112 94 45 181 103 208 140 21 29 26 88 13 154 -4 22 -11 92 -16
155 -6 100 -11 123 -40 182 -29 60 -150 208 -170 208 -11 0 -113 70 -122 83
-4 7 -8 8 -8 4 0 -4 -62 24 -139 63 -102 52 -166 93 -240 155 -56 46 -135 109
-174 139 -40 31 -83 71 -97 90 -14 19 -35 40 -47 48 -43 26 -204 190 -274 279
-81 102 -138 154 -179 162 -42 9 -176 66 -197 86 -10 9 -40 27 -65 39 -25 13
-55 32 -67 43 -11 10 -23 19 -26 19 -12 0 -129 94 -195 155 -36 34 -91 80
-122 104 l-58 43 0 137 c0 184 -16 382 -42 521 -11 63 -22 126 -24 140 -5 39
-62 235 -101 345 -36 103 -162 377 -175 383 -5 2 -8 7 -8 12 0 23 -149 243
-233 344 -17 21 -41 50 -51 65 -29 39 -201 195 -281 254 -38 28 -71 55 -73 59
-2 4 -10 8 -18 8 -7 0 -31 9 -53 20 -21 12 -55 24 -75 27 -34 5 -36 4 -36 -21z
m661 -758 c50 -61 103 -145 129 -203 12 -27 30 -66 40 -85 24 -45 77 -224 84
-281 5 -48 33 -203 40 -228 3 -9 12 -81 21 -161 8 -80 18 -164 21 -187 10 -77
-12 -45 -24 35 -7 42 -21 122 -31 177 -10 55 -17 104 -14 108 3 4 0 13 -5 20
-5 7 -12 23 -15 37 -26 121 -145 508 -177 575 -5 11 -22 49 -39 85 -16 36 -41
84 -56 108 -14 23 -22 42 -18 42 5 0 24 -19 44 -42z m336 -1260 c-2 -13 -4 -3
-4 22 0 25 2 35 4 23 2 -13 2 -33 0 -45z"/>
<path d="M2082 10030 c-29 -36 -46 -78 -67 -160 -8 -36 -19 -72 -22 -80 -3 -8
-7 -31 -9 -50 -2 -19 -7 -51 -10 -70 -10 -58 -15 -126 -22 -324 -19 -516 40
-929 187 -1306 22 -58 41 -111 41 -117 0 -7 4 -13 8 -13 5 0 18 -22 31 -49 33
-74 148 -242 221 -324 124 -139 322 -272 480 -322 47 -14 95 -31 108 -36 13
-5 34 -9 47 -9 13 0 26 -4 29 -8 14 -23 579 -23 602 0 3 3 -26 9 -63 13 -37 4
-115 16 -173 26 -58 10 -117 21 -131 23 -15 3 -48 14 -75 26 -157 68 -216 110
-254 183 -22 41 -23 49 -12 86 7 23 17 41 22 41 6 0 10 6 10 13 0 16 82 97 98
97 7 0 12 4 12 9 0 4 51 41 113 82 61 40 149 97 195 127 46 30 94 66 107 80
22 24 23 28 9 43 -25 28 -100 42 -143 27 -21 -7 -82 -12 -146 -12 -93 1 -121
5 -185 28 -108 38 -175 81 -261 166 -97 95 -202 256 -216 329 -2 14 -7 28 -11
31 -24 17 -66 155 -167 545 -18 72 -48 184 -65 250 -17 66 -33 129 -36 140 -4
20 -38 153 -48 190 -3 11 -21 84 -40 162 -19 78 -43 153 -53 167 -26 37 -80
35 -111 -4z m103 -1091 c-3 -4 -1 -10 5 -14 5 -3 10 -14 10 -23 0 -9 11 -52
24 -96 13 -45 35 -115 47 -156 12 -41 23 -79 24 -85 1 -5 4 -17 7 -25 4 -8 25
-71 48 -140 22 -69 45 -134 50 -145 5 -11 21 -54 35 -95 14 -41 33 -87 41
-103 8 -15 12 -32 9 -37 -3 -6 -2 -10 2 -10 8 0 53 -96 54 -115 0 -5 6 -17 14
-25 7 -8 25 -40 40 -70 15 -30 44 -80 64 -110 53 -80 52 -80 47 -80 -7 0 -146
166 -146 174 0 4 -6 14 -12 21 -55 61 -148 227 -209 373 -22 53 -44 106 -49
117 -5 11 -23 67 -40 124 -56 184 -93 395 -104 585 l-6 101 25 -79 c13 -43 22
-82 20 -87z"/>
<path d="M6265 9090 c-200 -14 -464 -53 -617 -91 -180 -44 -417 -118 -495
-154 -17 -8 -40 -15 -52 -15 -12 0 -21 -3 -21 -8 0 -4 -15 -13 -32 -21 -70
-29 -248 -114 -245 -117 2 -3 88 20 271 71 27 8 52 13 55 13 3 -1 31 6 61 15
31 9 71 18 90 21 19 2 42 7 50 10 8 3 33 7 55 10 22 2 58 9 80 15 130 34 630
75 840 68 331 -12 790 -66 843 -100 6 -5 16 -6 21 -3 9 6 187 -37 316 -76 80
-24 93 -27 100 -28 3 0 29 -9 57 -21 29 -11 81 -29 115 -40 33 -10 74 -26 90
-34 15 -8 31 -15 35 -15 4 0 38 -14 75 -30 38 -17 90 -41 118 -53 27 -12 84
-40 125 -61 41 -22 98 -50 125 -64 166 -81 655 -413 655 -444 0 -4 5 -8 11 -8
42 0 619 -564 619 -605 0 -4 14 -18 30 -32 17 -13 30 -31 30 -39 0 -8 4 -14 9
-14 11 0 151 -185 151 -200 0 -5 4 -10 9 -10 5 0 31 -34 57 -75 25 -42 49 -74
51 -71 5 5 -78 193 -120 272 -12 23 -35 68 -52 100 -16 33 -38 68 -47 78 -10
11 -18 23 -18 27 0 4 -18 35 -40 68 -22 33 -40 64 -40 70 0 5 -4 11 -8 13 -5
2 -27 30 -49 63 -80 117 -179 244 -258 330 -84 93 -345 330 -408 370 -9 6 -58
42 -109 80 -97 73 -100 75 -185 125 -29 17 -55 36 -59 41 -3 6 -16 14 -27 19
-12 6 -49 25 -82 44 -135 76 -364 186 -480 230 -38 15 -86 34 -105 43 -19 9
-38 16 -42 15 -7 -2 -91 27 -143 48 -16 7 -40 14 -53 16 -13 1 -54 12 -90 23
-95 29 -275 71 -304 71 -14 0 -28 3 -31 7 -4 3 -19 7 -34 8 -35 2 -214 22
-313 35 -100 12 -460 19 -585 10z"/>
<path d="M3714 8068 c-3 -5 9 -16 27 -26 67 -36 215 -136 247 -166 18 -17 45
-53 60 -81 23 -43 26 -62 27 -140 0 -49 -4 -108 -8 -130 l-8 -40 22 39 c70
129 77 252 20 355 -28 50 -107 124 -164 152 -41 21 -80 32 -138 37 -44 5 -82
4 -85 0z"/>
<path d="M2115 7503 c-37 -20 -197 -139 -290 -216 -70 -58 -365 -344 -365
-354 0 -2 -26 -35 -58 -71 -32 -37 -73 -87 -92 -112 -18 -25 -38 -50 -44 -55
-6 -6 -15 -18 -21 -27 -5 -9 -52 -77 -102 -152 -51 -75 -93 -140 -93 -145 0
-5 -3 -11 -7 -13 -5 -1 -26 -38 -47 -80 -22 -43 -44 -78 -50 -78 -5 0 -7 -3
-3 -6 3 -4 -7 -32 -23 -63 -16 -31 -47 -103 -70 -161 -23 -58 -45 -114 -50
-125 -48 -116 -97 -321 -128 -540 -8 -63 -9 -338 -1 -385 4 -19 10 -54 14 -78
4 -23 9 -41 12 -39 2 2 10 42 18 88 24 134 110 447 150 541 8 21 15 40 16 43
0 11 28 83 52 135 54 119 67 150 67 160 0 5 5 10 10 10 6 0 10 7 10 15 0 25
159 331 241 463 21 35 39 65 39 68 0 3 4 10 10 17 14 17 100 149 100 153 0 11
174 264 182 264 4 0 8 5 8 11 0 6 21 39 48 74 26 35 54 73 62 86 12 18 267
361 292 394 5 6 40 50 78 99 84 107 84 105 35 79z"/>
<path d="M4540 7431 c-16 -4 -26 -15 -28 -29 -4 -28 16 -55 35 -48 8 3 33 1
56 -4 23 -5 89 -19 146 -31 57 -11 111 -24 120 -29 9 -4 46 -22 83 -40 38 -19
91 -55 122 -86 30 -30 57 -54 60 -54 2 0 1 14 -4 30 -5 17 -6 30 -4 30 8 0
-58 93 -78 111 -10 9 -18 21 -18 28 0 6 -4 11 -9 11 -4 0 -39 18 -77 40 -87
50 -203 80 -303 79 -42 -1 -87 -4 -101 -8z"/>
<path d="M4485 7123 c-40 -12 -122 -63 -101 -63 2 0 -11 -26 -30 -57 -42 -71
-56 -120 -56 -199 -1 -111 53 -189 169 -249 55 -28 65 -30 173 -30 104 1 120
3 170 27 90 44 150 114 150 176 0 24 -80 117 -128 149 -20 14 -39 29 -42 32
-3 4 -32 15 -65 25 -33 10 -70 23 -83 27 -13 5 -40 9 -61 9 l-39 0 -16 -65
c-20 -79 -21 -176 -2 -238 13 -43 13 -47 -2 -47 -37 0 -111 61 -138 112 -25
48 -15 158 20 227 52 101 115 134 251 128 59 -2 125 -24 125 -40 0 -5 4 -6 9
-3 14 9 86 -49 121 -98 29 -40 60 -60 60 -40 0 19 -49 85 -97 131 -98 94 -250
128 -388 86z"/>
<path d="M3338 6979 c196 -98 315 -247 337 -422 7 -58 -7 -127 -30 -151 -8 -8
-15 -18 -15 -23 0 -17 -58 -43 -95 -43 -91 0 -150 60 -292 299 -54 91 -104
178 -112 192 -7 14 -38 59 -70 100 -53 69 -100 103 -118 85 -14 -14 -9 -337 6
-396 34 -133 126 -301 201 -365 19 -16 44 -39 56 -50 52 -50 213 -126 337
-159 124 -33 243 -48 347 -45 80 3 87 5 120 36 42 38 75 124 68 174 -9 56 -48
193 -58 203 -6 6 -10 18 -10 27 0 10 -5 19 -11 21 -5 2 -11 10 -12 18 -3 20
-88 164 -99 168 -4 2 -8 12 -8 23 0 10 -4 19 -9 19 -5 0 -24 21 -42 46 -30 40
-66 77 -155 159 -20 19 -36 29 -86 58 -13 6 -31 18 -40 26 -10 8 -18 12 -18 8
0 -3 -24 4 -52 15 -34 12 -87 21 -148 24 l-95 5 103 -52z"/>
<path d="M8263 6789 c-77 -38 -88 -114 -26 -183 55 -61 53 -40 53 -581 l0
-505 60 0 60 0 0 511 c0 356 -3 517 -11 532 -6 12 -26 38 -44 57 -41 44 -49
66 -27 75 9 3 68 6 132 5 63 -1 132 -1 153 -1 l37 1 0 55 0 55 -172 0 c-155 0
-177 -2 -215 -21z"/>
<path d="M13620 6186 c0 -249 -3 -468 -6 -485 -4 -17 -19 -45 -34 -61 -24 -25
-36 -30 -77 -30 -29 0 -58 7 -72 16 -48 34 -51 60 -51 409 l0 325 -59 0 -60 0
-3 -317 c-3 -281 -5 -323 -21 -360 -23 -52 -54 -73 -110 -73 -49 0 -89 28
-107 75 -6 16 -10 161 -10 351 l0 324 -60 0 -60 0 0 -335 c0 -321 8 -425 32
-425 4 0 8 -6 8 -13 0 -32 113 -87 180 -87 54 0 142 36 173 71 l28 31 35 -35
c39 -39 111 -67 173 -67 46 0 126 32 159 63 57 53 57 50 60 585 l3 492 -61 0
-60 0 0 -454z"/>
<path d="M12110 6520 l0 -50 318 2 317 3 0 45 0 45 -317 3 -318 2 0 -50z"/>
<path d="M8885 6365 c-33 -7 -67 -15 -75 -17 -8 -1 -20 -7 -27 -13 -6 -5 -34
-28 -62 -50 -27 -22 -50 -44 -51 -48 0 -4 -9 -20 -19 -35 -11 -15 -22 -37 -26
-49 -6 -22 -4 -23 58 -23 58 0 66 3 81 24 53 82 120 115 228 116 76 0 158 -21
158 -41 0 -5 6 -9 14 -9 19 0 65 -56 90 -110 17 -38 21 -64 20 -170 0 -138 -8
-169 -64 -239 -17 -21 -56 -51 -86 -66 -50 -25 -61 -27 -142 -23 -67 4 -97 11
-131 29 -80 43 -139 153 -140 262 l-1 57 85 0 85 0 0 55 0 55 -135 0 c-163 0
-158 4 -152 -138 5 -112 7 -120 30 -187 39 -113 135 -197 262 -229 103 -26
143 -22 320 31 20 6 30 14 85 68 99 97 137 327 84 506 -40 133 -148 226 -290
249 -76 13 -125 12 -199 -5z"/>
<path d="M12290 6366 c-76 -18 -99 -29 -146 -70 -127 -109 -88 -281 73 -322
26 -7 98 -20 158 -29 134 -20 208 -47 236 -87 28 -38 23 -134 -8 -176 -38 -51
-76 -65 -189 -68 -91 -2 -108 0 -145 20 -55 28 -79 61 -93 128 l-12 53 -59 3
-58 3 7 -57 c15 -130 82 -210 204 -242 96 -25 187 -26 277 -2 104 28 155 60
179 114 10 22 22 49 27 58 5 10 9 50 9 91 0 131 -58 202 -195 237 -71 18 -109
25 -255 47 -70 10 -110 43 -110 90 0 18 5 33 10 33 6 0 10 7 10 15 0 8 7 15
15 15 8 0 15 4 15 8 0 21 76 43 151 43 67 0 88 -4 136 -28 45 -22 61 -37 78
-71 20 -41 21 -42 71 -42 44 0 52 3 57 21 7 25 -23 92 -56 129 -12 14 -39 34
-60 45 -20 11 -37 22 -37 25 0 3 -8 6 -17 7 -10 0 -45 6 -78 12 -75 14 -125
13 -195 -3z"/>
<path d="M9578 6363 l-58 -4 0 -419 0 -420 55 0 55 0 0 48 c0 27 3 52 6 55 4
4 22 -7 41 -23 45 -40 95 -64 171 -84 80 -20 101 -20 182 3 36 10 71 20 79 22
28 8 72 68 91 125 18 52 20 84 20 376 l0 318 -60 0 -60 0 0 -315 c0 -298 -1
-318 -20 -356 -12 -22 -29 -43 -38 -46 -9 -4 -20 -11 -24 -17 -13 -20 -168
-13 -212 9 -52 25 -144 118 -152 153 -4 15 -11 32 -16 38 -5 7 -7 132 -6 278
2 146 3 265 3 264 0 -1 -26 -3 -57 -5z"/>
<path d="M10328 6364 c-14 -4 -18 -16 -18 -54 l0 -50 63 2 c89 2 144 -16 167
-55 19 -30 20 -52 20 -359 l0 -328 55 0 55 0 0 358 c0 351 -1 358 -23 396 -34
61 -93 87 -208 91 -52 2 -102 2 -111 -1z"/>
<path d="M11598 6363 c-14 -3 -18 -15 -18 -54 l0 -49 69 0 c77 0 115 -11 149
-42 22 -21 22 -22 22 -360 l0 -338 60 0 60 0 0 352 c0 332 -1 354 -20 392 -26
52 -54 72 -126 91 -55 14 -157 18 -196 8z"/>
<path d="M10820 5939 l0 -421 223 4 c215 3 224 4 277 29 61 29 131 95 157 149
11 23 18 69 21 132 4 87 2 102 -21 152 -18 40 -39 65 -71 88 -25 17 -46 35
-46 39 0 4 16 19 35 33 56 43 81 105 77 189 -2 26 -4 27 -57 27 -54 0 -55 -1
-55 -28 0 -15 -10 -48 -22 -72 -34 -65 -87 -90 -193 -90 -45 0 -84 -2 -86 -4
-2 -2 -2 -27 -1 -55 l4 -51 79 0 c97 0 141 -17 192 -72 20 -22 37 -43 37 -47
1 -3 5 -25 9 -48 13 -69 -3 -139 -44 -189 -20 -24 -44 -44 -52 -44 -9 0 -25
-8 -36 -17 -16 -15 -43 -19 -163 -21 l-144 -4 0 371 0 371 -60 0 -60 0 0 -421z"/>
<path d="M5608 6006 c-76 -27 -127 -78 -159 -158 -19 -46 -25 -138 -10 -138 5
0 15 16 22 35 7 19 17 35 21 35 4 0 8 7 8 17 0 27 59 110 116 162 71 65 71 72
2 47z"/>
<path d="M6455 5819 c-22 -11 -89 -34 -150 -51 -90 -25 -134 -32 -244 -36
-116 -4 -240 6 -303 24 -10 3 -18 1 -18 -4 0 -5 10 -13 23 -16 61 -17 168 -37
252 -46 155 -18 328 19 448 96 76 48 70 73 -8 33z"/>
<path d="M4495 5710 c-44 -4 -116 -17 -159 -29 -44 -11 -83 -18 -86 -16 -4 3
-30 -7 -59 -20 -28 -14 -60 -25 -70 -25 -11 0 -21 -3 -23 -7 -1 -5 -30 -21
-62 -38 -151 -76 -264 -199 -306 -333 -25 -79 -24 -181 4 -296 18 -76 15 -101
-14 -109 -43 -11 -174 18 -295 65 -104 41 -447 211 -468 233 -10 9 -17 14 -17
10 0 -3 -10 0 -22 6 -21 11 -22 11 -9 -5 22 -26 236 -186 309 -230 34 -20 62
-42 62 -47 0 -5 3 -8 8 -8 17 3 31 -2 44 -14 7 -7 24 -18 38 -25 14 -6 32 -16
40 -21 31 -18 117 -54 170 -71 92 -30 135 -33 190 -15 102 34 128 116 95 296
-17 96 -14 199 7 199 5 0 8 7 4 15 -3 8 1 21 9 29 8 8 15 17 15 21 0 3 4 11
10 18 5 7 21 27 36 45 14 17 32 32 39 32 7 0 15 6 18 14 16 42 235 139 382
171 136 28 155 30 345 30 214 -1 285 -15 475 -93 158 -65 276 -101 385 -117
122 -19 183 -19 278 1 71 15 97 28 87 45 -3 3 -71 9 -152 12 -113 4 -163 10
-212 26 -35 12 -67 21 -72 21 -4 0 -20 5 -36 12 -15 7 -32 13 -38 13 -5 1 -19
5 -30 9 -11 5 -32 12 -47 18 -16 6 -28 15 -28 20 0 5 -6 8 -12 5 -13 -4 -89
29 -98 44 -3 4 -17 10 -32 13 -14 2 -39 11 -56 20 -17 9 -86 29 -154 46 -138
33 -346 46 -493 30z"/>
<path d="M6280 5648 c-36 -11 -72 -23 -80 -26 -8 -3 -19 -6 -25 -7 -5 0 -14
-3 -20 -7 -20 -12 -206 -40 -240 -36 -47 5 -44 -6 5 -26 76 -30 251 -15 311
28 13 9 31 16 41 16 10 0 18 4 18 8 0 4 19 22 42 40 48 37 38 39 -52 10z"/>
<path d="M1466 5418 c-147 -149 -171 -176 -260 -294 -60 -80 -156 -236 -156
-253 0 -6 -3 -11 -8 -11 -4 0 -12 -15 -18 -32 -7 -18 -26 -69 -43 -112 -16
-44 -36 -105 -43 -135 -19 -83 -16 -302 5 -381 23 -87 103 -245 149 -295 21
-22 41 -47 44 -55 9 -24 228 -221 344 -311 58 -44 118 -91 134 -105 15 -13 31
-24 34 -24 9 0 107 -64 110 -72 2 -5 8 -8 12 -8 5 0 33 -14 62 -31 53 -32 251
-132 318 -162 150 -65 401 -152 530 -181 41 -10 84 -21 95 -26 11 -5 36 -11
55 -15 30 -5 141 -25 315 -56 28 -5 124 -16 215 -25 91 -8 203 -20 250 -25 47
-4 337 -13 645 -18 803 -14 939 -19 1230 -48 143 -13 278 -27 300 -29 137 -13
475 -82 690 -141 78 -22 263 -86 310 -108 17 -7 33 -14 37 -15 10 -1 160 -65
184 -78 10 -6 75 -38 144 -71 69 -33 154 -76 188 -96 111 -62 187 -107 192
-114 3 -4 23 -16 45 -28 45 -23 252 -155 275 -175 13 -12 58 -38 65 -38 2 0
-5 24 -14 53 -21 66 -72 165 -122 239 -22 32 -39 60 -39 63 0 3 -8 13 -17 23
-10 10 -34 38 -53 62 -67 84 -135 153 -225 227 -49 41 -103 86 -119 99 -15 13
-29 24 -31 24 -4 0 -129 83 -135 90 -3 3 -40 23 -83 45 -43 22 -86 48 -96 57
-11 9 -21 15 -23 12 -3 -2 -52 18 -109 45 -57 27 -158 68 -224 91 -66 24 -126
47 -133 53 -7 5 -15 7 -18 4 -3 -3 -18 -1 -33 4 -14 6 -84 26 -156 45 -114 31
-182 46 -375 85 -131 26 -509 61 -739 69 -193 6 -724 1 -891 -8 -348 -20 -556
-24 -730 -14 -107 7 -202 13 -210 13 -204 8 -475 44 -710 95 -14 3 -33 6 -42
8 -10 1 -21 5 -24 9 -4 4 -17 7 -29 7 -12 0 -25 3 -28 7 -4 3 -20 8 -36 9 -69
8 -451 147 -451 165 0 5 -7 9 -15 9 -18 0 -242 114 -265 135 -9 8 -20 15 -24
15 -12 0 -178 115 -261 181 -108 85 -196 176 -239 248 -49 81 -92 210 -100
301 -8 86 8 244 30 310 9 25 22 69 30 99 8 30 25 75 38 100 13 25 34 70 46 99
13 28 27 52 32 52 4 0 8 6 8 13 0 11 17 41 85 153 39 64 141 198 193 253 28
30 52 57 52 58 0 19 -46 -21 -164 -139z"/>
<path d="M2471 5254 c-3 -38 96 -263 129 -294 3 -3 24 -27 45 -55 46 -58 116
-124 189 -179 28 -21 53 -41 56 -45 3 -3 23 -15 44 -26 22 -11 53 -28 70 -37
90 -49 338 -136 456 -160 129 -26 483 -10 615 28 28 7 64 15 80 16 17 1 38 7
48 13 14 10 0 13 -75 19 -134 11 -170 14 -298 26 -63 6 -139 13 -168 16 -96 8
-379 47 -439 59 -42 9 -147 47 -157 57 -6 4 -19 8 -29 8 -20 0 -80 30 -85 43
-2 4 -11 7 -20 7 -28 0 -149 87 -233 167 -43 42 -79 79 -79 83 0 4 -12 21 -28
37 -23 26 -101 168 -116 213 -2 8 -5 10 -5 4z"/>
<path d="M5400 5003 c-101 -18 -241 -89 -315 -160 -77 -74 -105 -111 -152
-206 -72 -142 -71 -403 2 -546 59 -118 100 -169 206 -257 76 -63 216 -106 358
-112 140 -5 243 23 370 99 74 45 240 258 241 309 0 9 5 21 12 28 7 7 9 12 6
12 -3 0 1 26 8 58 29 121 8 297 -49 420 -51 109 -161 225 -277 290 -103 57
-288 87 -410 65z m275 -258 c169 -81 270 -271 237 -448 -40 -214 -218 -359
-424 -345 -127 9 -244 77 -314 183 -72 109 -81 304 -19 428 35 69 125 154 199
187 51 24 73 28 155 28 88 0 101 -2 166 -33z"/>
<path d="M9835 4986 c-44 -12 -109 -37 -145 -56 -71 -38 -182 -137 -227 -203
-15 -23 -31 -43 -35 -45 -5 -2 -8 -11 -8 -21 0 -9 -4 -21 -9 -26 -4 -6 -16
-39 -27 -75 -22 -77 -25 -284 -6 -368 30 -132 133 -282 244 -358 24 -16 45
-32 48 -35 9 -10 89 -39 165 -59 100 -27 249 -27 348 0 95 25 112 32 175 69
28 17 52 29 52 27 0 -2 30 25 68 60 l67 63 -82 82 -81 82 -59 -51 c-32 -27
-78 -60 -103 -72 -25 -12 -54 -26 -65 -32 -11 -6 -60 -13 -110 -16 -194 -10
-339 74 -421 243 -16 33 -19 62 -19 170 0 124 1 133 30 190 26 52 85 121 139
164 21 16 108 50 151 59 121 25 267 -13 376 -97 34 -25 67 -50 75 -56 10 -7
27 3 67 43 29 28 56 52 61 52 12 0 36 27 36 42 0 32 -138 142 -226 181 -157
69 -330 85 -479 43z"/>
<path d="M6564 4943 c-4 -21 -7 -41 -6 -45 1 -3 -6 -44 -14 -90 -15 -84 -44
-250 -83 -478 -12 -69 -32 -186 -45 -260 -14 -74 -30 -169 -36 -210 -6 -41
-14 -83 -16 -92 -5 -16 5 -18 108 -18 l113 0 12 53 c6 28 16 81 22 117 24 145
32 192 62 365 16 99 32 191 34 203 6 40 11 34 34 -46 13 -42 27 -86 31 -97 10
-23 61 -172 65 -189 1 -6 5 -18 8 -26 3 -8 11 -33 17 -55 6 -22 15 -49 20 -60
5 -11 27 -74 49 -140 l40 -120 104 -3 103 -3 125 373 c69 205 129 374 134 376
6 1 11 -8 11 -20 2 -28 29 -196 49 -298 8 -41 24 -136 35 -210 12 -74 26 -154
32 -177 l10 -43 115 0 c111 0 113 0 103 20 -6 11 -9 24 -6 29 3 5 2 22 -4 37
-5 16 -11 49 -14 74 -5 41 -20 136 -30 185 -2 11 -13 81 -25 155 -12 74 -26
160 -32 190 -6 30 -25 136 -41 235 -16 99 -34 208 -40 243 l-10 62 -112 0
-112 0 -15 -37 c-9 -21 -37 -103 -63 -183 -26 -80 -50 -152 -53 -160 -3 -8 -7
-19 -8 -25 -3 -9 -91 -271 -133 -393 -8 -24 -18 -40 -22 -35 -3 4 -57 161
-119 348 -61 187 -123 373 -137 413 l-26 72 -113 0 -113 0 -8 -37z"/>
<path d="M8430 4933 c-11 -26 -23 -57 -26 -70 -4 -13 -10 -23 -16 -23 -5 0 -8
-6 -7 -12 1 -7 -2 -24 -8 -38 -6 -14 -22 -56 -36 -95 -14 -38 -30 -81 -36 -95
-5 -14 -22 -56 -37 -95 -14 -38 -32 -83 -39 -100 -7 -16 -23 -57 -35 -90 -13
-33 -29 -73 -36 -90 -7 -16 -22 -57 -33 -90 -12 -33 -26 -69 -31 -80 -5 -11
-26 -65 -46 -120 -20 -55 -45 -118 -55 -139 -11 -22 -19 -41 -19 -43 0 -2 56
-3 124 -3 l123 0 18 48 c10 26 28 69 41 95 12 26 26 61 29 77 l7 30 253 0 253
0 10 -27 c6 -16 27 -72 48 -125 l37 -98 119 0 c65 0 118 4 118 9 0 10 -27 88
-40 116 -5 11 -20 49 -34 85 -56 146 -99 259 -127 328 -16 41 -27 78 -23 83 3
5 1 9 -4 9 -5 0 -12 8 -15 18 -10 32 -58 157 -71 187 -8 17 -19 48 -26 70 -7
22 -22 63 -35 90 -12 28 -30 74 -40 104 -10 29 -24 65 -31 80 -8 14 -14 32
-14 39 0 9 -31 12 -120 12 l-119 0 -21 -47z m156 -325 c7 -18 39 -105 73 -193
34 -88 63 -164 64 -170 1 -6 -57 -11 -155 -13 l-156 -2 8 32 c5 18 25 76 45
128 20 52 44 118 54 145 25 67 43 105 50 105 3 0 11 -15 17 -32z"/>
<path d="M10837 4973 c-4 -4 -7 -280 -7 -615 l1 -608 119 0 120 0 1 238 c0
130 2 251 2 267 l2 30 200 0 200 0 3 -267 2 -268 120 0 120 0 0 615 0 615
-120 0 -120 0 -2 -227 -3 -228 -200 0 -200 0 -2 215 c-1 118 -3 221 -3 228 0
9 -29 12 -113 12 -63 0 -117 -3 -120 -7z"/>
<path d="M12443 4953 c-7 -16 -21 -53 -32 -83 -11 -30 -33 -89 -49 -130 -65
-168 -146 -379 -169 -438 -12 -35 -32 -82 -43 -104 -11 -23 -20 -48 -20 -55 0
-7 -4 -21 -9 -31 -6 -9 -22 -48 -36 -87 -24 -63 -52 -135 -74 -190 -22 -54
-31 -76 -31 -80 0 -3 56 -5 124 -5 121 0 125 1 131 23 13 42 78 202 88 215 7
9 71 12 258 12 193 0 249 -3 249 -12 0 -7 6 -25 14 -40 8 -14 19 -43 26 -65 7
-21 21 -59 32 -85 l20 -48 120 0 c110 0 120 2 115 18 -3 9 -24 64 -47 122 -23
58 -43 110 -44 115 -4 12 -21 58 -41 105 -14 35 -95 244 -141 370 -14 36 -27
72 -31 80 -3 8 -7 17 -8 20 -1 3 -5 14 -10 25 -38 97 -66 171 -69 184 -2 9
-11 33 -20 55 -10 21 -26 59 -35 85 l-19 46 -118 3 -119 3 -12 -28z m171 -400
c19 -50 43 -111 51 -135 28 -76 65 -181 65 -185 0 -2 -70 -3 -155 -3 -129 0
-155 2 -155 14 0 8 16 55 35 103 31 80 92 241 109 287 3 10 8 17 10 15 2 -2
20 -45 40 -96z"/>
<path d="M13440 4366 l0 -616 120 0 120 0 0 260 c0 148 4 260 9 260 5 0 26
-35 48 -77 21 -43 40 -80 44 -83 3 -3 18 -30 33 -60 16 -30 41 -77 56 -105 15
-27 44 -83 66 -122 l38 -73 123 0 c94 0 123 3 123 13 0 7 -25 58 -55 112 -30
55 -55 106 -55 112 0 7 -4 13 -8 13 -5 0 -18 19 -28 43 -10 23 -43 85 -71 137
-29 52 -53 100 -53 105 0 6 20 21 44 34 45 23 138 114 145 141 27 100 33 159
22 229 -20 134 -89 220 -208 263 -51 18 -87 22 -285 26 l-228 5 0 -617z m440
366 c70 -34 88 -129 37 -187 -23 -27 -45 -33 -164 -42 l-73 -6 0 127 0 126 83
0 c58 0 92 -5 117 -18z"/>
<path d="M14500 4365 l0 -615 335 0 336 0 -3 118 -3 117 -215 2 -215 3 -3 155
-3 155 221 0 220 0 0 115 0 115 -217 2 -218 3 -3 108 -3 107 221 0 220 0 0
115 0 115 -335 0 -335 0 0 -615z"/>
<path d="M15470 4365 l0 -615 335 0 335 0 0 114 c0 82 -4 115 -12 118 -7 3
-103 6 -213 7 -109 1 -202 4 -205 6 -3 2 -5 16 -4 32 1 15 3 83 3 151 l1 122
215 0 215 0 0 115 0 115 -215 0 -215 0 0 110 0 110 215 0 215 0 0 115 0 115
-335 0 -335 0 0 -615z"/>
<path d="M16450 4365 l0 -615 115 0 115 0 0 275 0 275 190 0 190 0 0 115 0
115 -190 0 -190 0 0 110 0 110 190 0 190 0 0 115 0 115 -305 0 -305 0 0 -615z"/>
<path d="M9562 2421 c-55 -59 -216 -201 -229 -201 -7 0 -17 -9 -23 -19 -13
-24 -215 -201 -229 -201 -6 0 -11 -4 -11 -9 0 -13 -281 -229 -415 -318 -296
-197 -754 -422 -1045 -512 -58 -18 -138 -44 -179 -57 -40 -13 -77 -21 -82 -18
-4 2 -16 0 -26 -5 -33 -18 -338 -77 -493 -96 -19 -3 -51 -7 -70 -10 -175 -26
-727 -23 -920 5 -232 34 -333 51 -385 65 -33 9 -75 19 -94 21 -19 3 -42 9 -51
14 -10 5 -19 7 -22 5 -3 -3 -43 6 -89 20 -126 39 -271 85 -294 95 -11 5 -47
18 -80 30 -33 12 -73 28 -90 35 -16 8 -82 37 -145 66 -130 58 -292 142 -389
201 -155 94 -271 171 -271 179 0 5 -5 9 -11 9 -25 0 -349 252 -349 271 0 5 -9
13 -19 17 -23 8 -168 139 -258 231 -34 36 -65 62 -69 59 -3 -4 8 -22 25 -40
17 -18 31 -38 31 -45 0 -7 6 -16 14 -20 8 -4 43 -44 77 -88 83 -105 320 -347
434 -443 50 -42 97 -82 105 -90 29 -26 213 -162 219 -162 4 0 16 -9 28 -19 11
-11 74 -51 139 -90 66 -39 124 -75 130 -80 20 -16 424 -211 438 -211 7 0 90
-36 118 -51 10 -5 27 -9 38 -9 11 0 20 -5 20 -11 0 -6 6 -9 13 -6 6 2 27 -2
45 -9 192 -78 663 -171 987 -195 164 -13 550 -6 675 11 41 6 107 15 145 20
116 15 257 40 309 55 27 8 53 12 58 9 5 -3 14 -1 21 4 7 5 37 15 67 22 30 7
116 33 190 57 74 24 141 45 150 47 8 1 31 10 50 19 19 9 80 35 135 57 135 56
371 175 486 245 52 32 107 65 124 74 16 9 35 21 42 28 7 6 50 38 96 69 102 72
142 104 288 226 123 103 364 346 431 434 22 30 44 54 49 54 5 0 9 7 9 15 0 8
9 20 20 27 11 7 20 18 20 25 0 6 11 20 24 30 13 10 26 28 30 38 3 11 16 31 28
45 13 15 29 37 37 50 8 14 21 35 29 48 22 34 1 24 -36 -17z"/>
</g>
</svg>
